<?xml version="1.0" standalone="no"?><!DOCTYPE svg PUBLIC "-//W3C//DTD SVG 1.1//EN" "http://www.w3.org/Graphics/SVG/1.1/DTD/svg11.dtd"><svg t="1556812897374" class="icon" style="" viewBox="0 0 1024 1024" version="1.1" xmlns="http://www.w3.org/2000/svg" p-id="4753" xmlns:xlink="http://www.w3.org/1999/xlink" width="40" height="40"><defs><style type="text/css"></style></defs><path d="M724.48 517.12c2.56-5.12 2.56-10.24 5.12-15.36 7.68-38.4 5.12-69.12-15.36-94.72-17.92-25.6-46.08-38.4-87.04-40.96-2.56 0-7.68 0-10.24 0-7.68 0-15.36 0-23.04 2.56-30.72 7.68-61.44 15.36-92.16 23.04 2.56-15.36 2.56-30.72 2.56-46.08-2.56-51.2-38.4-87.04-89.6-87.04l-2.56 0c-25.6 0-56.32 2.56-84.48 15.36C192 332.8 89.6 435.2 25.6 576c-40.96 89.6-30.72 176.64 30.72 245.76 28.16 30.72 61.44 58.88 99.84 79.36 84.48 48.64 179.2 58.88 250.88 61.44l5.12 0 5.12 0c12.8-2.56 23.04-2.56 35.84-2.56 28.16-2.56 56.32-5.12 84.48-10.24 117.76-23.04 204.8-74.24 268.8-153.6 53.76-69.12 53.76-128 43.52-161.28C832 596.48 803.84 547.84 724.48 517.12zM760.32 762.88c-58.88 76.8-143.36 117.76-238.08 135.68-38.4 7.68-76.8 10.24-115.2 12.8-79.36-2.56-158.72-15.36-227.84-53.76-30.72-17.92-61.44-43.52-87.04-69.12-51.2-56.32-51.2-122.88-20.48-189.44 58.88-128 151.04-222.72 281.6-279.04 20.48-7.68 43.52-10.24 64-10.24 0 0 0 0 2.56 0 23.04 0 38.4 15.36 38.4 38.4 0 20.48-2.56 38.4-5.12 58.88-5.12 28.16 5.12 43.52 28.16 43.52 5.12 0 10.24 0 17.92-2.56 38.4-10.24 74.24-20.48 112.64-30.72 2.56 0 5.12 0 10.24 0 2.56 0 5.12 0 7.68 0 48.64 2.56 64 28.16 53.76 74.24-2.56 7.68-5.12 12.8-5.12 17.92-7.68 28.16-2.56 43.52 25.6 53.76 0 0 2.56 0 2.56 0C803.84 601.6 826.88 675.84 760.32 762.88z" p-id="4754" fill="#707070"></path><path d="M750.08 222.72c-12.8 0-25.6 10.24-25.6 25.6 0 12.8 10.24 25.6 25.6 25.6 7.68 0 69.12 5.12 81.92 74.24 2.56 12.8 12.8 20.48 25.6 20.48 2.56 0 2.56 0 5.12 0 12.8-2.56 23.04-15.36 20.48-30.72C862.72 248.32 785.92 222.72 750.08 222.72z" p-id="4755" fill="#707070"></path><path d="M755.2 61.44c-12.8-2.56-28.16 7.68-28.16 20.48-2.56 12.8 7.68 28.16 20.48 28.16 10.24 2.56 240.64 35.84 222.72 238.08 0 12.8 10.24 25.6 23.04 28.16 0 0 2.56 0 2.56 0 12.8 0 23.04-10.24 25.6-23.04C1039.36 153.6 855.04 74.24 755.2 61.44z" p-id="4756" fill="#707070"></path></svg>